<svg width="80px" height="80px" viewBox="0 0 80 80" xmlns="http://www.w3.org/2000/svg">
  <style>
    .fr-artwork-decorative {
      fill: #ECECFF;
    }
    .fr-artwork-minor {
      fill: #E1000F;
    }
    .fr-artwork-major {
      fill: #000091;
    }
  </style>

  <symbol id="artwork-decorative">
    <path d="..."/>
  </symbol>
  <symbol id="artwork-minor">
    <path d="..." />
  </symbol>
  <symbol id="artwork-major">
    <path d="M43.5976 21.3387L58.6829 36.4241L56.7976 53.3947C40.4563 57.1654 30.7123 59.9947 21.9149 67.5361L18.1949 63.8134C28.1203 54.9307 39.5149 52.2721 51.9096 49.0934L53.0989 38.3787L41.6403 26.9201L30.9256 28.1094C27.7469 40.5041 25.0883 51.8961 16.2056 61.8241L12.4856 58.1067C20.0269 49.3067 22.8589 39.5654 26.6269 23.2241L43.5976 21.3387ZM39.8269 40.1921C41.8195 42.2886 41.7778 45.5912 39.7329 47.6368C37.6881 49.6823 34.3855 49.7252 32.2883 47.7334H32.2856C30.8992 46.3943 30.3431 44.4114 30.8312 42.5467C31.3193 40.682 32.7755 39.2258 34.6402 38.7377C36.5049 38.2496 38.4879 38.8056 39.8269 40.1921ZM50.1976 12.8534L67.1229 29.7761C67.4786 30.1311 67.6044 30.656 67.4483 31.1337C67.2923 31.6114 66.8809 31.9607 66.3843 32.0374L62.4536 32.6507L47.3709 17.5681L47.9363 13.6081C48.0079 13.1086 48.3554 12.6924 48.834 12.5327C49.3126 12.373 49.8403 12.4971 50.1976 12.8534Z" />
  </symbol>

  <use class="fr-artwork-decorative" href="#artwork-decorative"/>
  <use class="fr-artwork-minor" href="#artwork-minor"/>
  <use class="fr-artwork-major" href="#artwork-major"/>
</svg>