<?xml version="1.0" encoding="UTF-8" standalone="no"?>
<svg
   xmlns:dc="http://purl.org/dc/elements/1.1/"
   xmlns:cc="http://creativecommons.org/ns#"
   xmlns:rdf="http://www.w3.org/1999/02/22-rdf-syntax-ns#"
   xmlns:svg="http://www.w3.org/2000/svg"
   xmlns="http://www.w3.org/2000/svg"
   xmlns:sodipodi="http://sodipodi.sourceforge.net/DTD/sodipodi-0.dtd"
   xmlns:inkscape="http://www.inkscape.org/namespaces/inkscape"
   width="80px"
   height="80px"
   viewBox="0 0 80 80"
   version="1.1"
   id="svg13"
   sodipodi:docname="archive.svg"
   inkscape:version="0.92.5 (2060ec1f9f, 2020-04-08)">
  <metadata
     id="metadata19">
    <rdf:RDF>
      <cc:Work
         rdf:about="">
        <dc:format>image/svg+xml</dc:format>
        <dc:type
           rdf:resource="http://purl.org/dc/dcmitype/StillImage" />
      </cc:Work>
    </rdf:RDF>
  </metadata>
  <defs
     id="defs17" />
  <sodipodi:namedview
     pagecolor="#ffffff"
     bordercolor="#666666"
     borderopacity="1"
     objecttolerance="10"
     gridtolerance="10"
     guidetolerance="10"
     inkscape:pageopacity="0"
     inkscape:pageshadow="2"
     inkscape:window-width="1920"
     inkscape:window-height="1131"
     id="namedview15"
     showgrid="false"
     inkscape:zoom="8.34386"
     inkscape:cx="29.822207"
     inkscape:cy="62.215518"
     inkscape:window-x="1920"
     inkscape:window-y="0"
     inkscape:window-maximized="1"
     inkscape:current-layer="svg13" />
  <style
     id="style2">
		.fr-artwork-decorative {
			fill: #ECECFF;
		}
		.fr-artwork-minor {
			fill: #E1000F;
		}
		.fr-artwork-major {
			fill: #000091;
		}
	</style>
  <g
     class="fr-artwork-decorative"
     id="artwork-decorative">
    <path
       d="M21,76c-0.5514,0-1-0.4486-1-1s0.4486-1,1-1s1,0.4486,1,1S21.5514,76,21,76z M77,24c-0.5514,0-1-0.4486-1-1  s0.4486-1,1-1s1,0.4486,1,1S77.5514,24,77,24z M47,2c-0.5514,0-1-0.4486-1-1c0-0.55145,0.4486-1,1-1s1,0.44855,1,1  C48,1.5514,47.5514,2,47,2z"
       id="path4" />
  </g>
  <g
     class="fr-artwork-minor"
     id="artwork-minor">
    <path
       d="M17,28c0.5128,0,0.9355,0.386,0.9933,0.8834L18,29v4c0,0.5523-0.4477,1-1,1  c-0.5128,0-0.9355-0.386-0.9933-0.8834L16,33v-4C16,28.4477,16.4477,28,17,28z M17,46c0.5128,0,0.9355,0.386,0.9933,0.8834L18,47v10  c0,0.5523-0.4477,1-1,1c-0.5128,0-0.9355-0.386-0.9933-0.8834L16,57V47C16,46.4477,16.4477,46,17,46z M23.9933,28.8834  C23.9355,28.386,23.5128,28,23,28c-0.5523,0-1,0.4477-1,1v28l0.0067,0.1166C22.0645,57.614,22.4872,58,23,58c0.5523,0,1-0.4477,1-1  V29L23.9933,28.8834z M29,28c0.5128,0,0.9355,0.386,0.9933,0.8834L30,29v2c0,0.5523-0.4477,1-1,1  c-0.5128,0-0.9355-0.386-0.9933-0.8834L28,31v-2C28,28.4477,28.4477,28,29,28z M35.9933,28.8834C35.9355,28.386,35.5128,28,35,28  c-0.5523,0-1,0.4477-1,1v2l0.0067,0.1166C34.0645,31.614,34.4872,32,35,32c0.5523,0,1-0.4477,1-1v-2L35.9933,28.8834z"
       id="path7" />
  </g>
  <g
     class="fr-artwork-major"
     id="artwork-major">
    <path
       d="m 50.4472,46.10559 -8,-4 c -0.5722,-0.28607 -1.26221,0.03119 -1.4173,0.65192 l -2,8 c -0.19788,0.79138 0.58411,1.47388 1.34149,1.17102 l 10,-4 c 0.8011,-0.32056 0.8476,-1.43701 0.07581,-1.82294 z m -9.00317,3.2384 1.224,-4.89197 4.89197,2.44599 z M 56,48 c -2.76141,0 -5,2.23859 -5,5 0,2.76141 2.23859,5 5,5 2.76141,0 5,-2.23859 5,-5 0,-2.76141 -2.23859,-5 -5,-5 z m 0,8 c -1.65692,0 -3,-1.34308 -3,-3 0,-1.65692 1.34308,-3 3,-3 1.6568,0 3,1.34308 3,3 0,1.65692 -1.3432,3 -3,3 z M 67,34 H 33 c -2.76141,0 -5,2.23859 -5,5 v 20 c 0,2.76141 2.23859,5 5,5 h 34 c 2.76141,0 5,-2.23859 5,-5 V 39 c 0,-2.76141 -2.23859,-5 -5,-5 z m -37,5 c 0,-1.65692 1.34308,-3 3,-3 h 1 v 4 h -4 z m 4,23 h -1 c -1.65692,0 -3,-1.34308 -3,-3 v -1 h 4 z m 36,-3 c 0,1.65692 -1.3432,3 -3,3 h -1 v -4 h 4 z m 0,-3 h -5 l -0.11658,0.0067 C 64.38599,56.06451 64,56.48718 64,57 v 5 H 36 V 57 L 35.9933,56.88342 C 35.93549,56.38599 35.51282,56 35,56 H 30 V 42 h 5 l 0.11658,-0.0067 C 35.61401,41.93549 36,41.51282 36,41 v -5 h 28 v 5 l 0.0067,0.11658 C 64.06451,41.61401 64.48718,42 65,42 h 5 z m 0,-16 h -4 v -4 h 1 c 1.6568,0 3,1.34308 3,3 z M 23,62 H 15 L 14.82373,61.9949 C 13.2489,61.90369 12,60.59772 12,59 V 44.69299 l 7.35107,-2.75671 0.10712,-0.0473 c 0.48022,-0.24646 0.68402,-0.84058 0.43622,-1.33618 l -2,-4 -0.06152,-0.10638 c -0.2467,-0.37183 -0.71637,-0.53931 -1.14911,-0.39514 L 12,37.61261 V 27 l 0.0051,-0.17633 C 12.09631,25.2489 13.40228,24 15,24 h 24 l 0.11658,-0.0067 C 39.61401,23.93549 40,23.51282 40,23 40,22.44769 39.55231,22 39,22 14.78308,22.0046 27.262288,22 15,22 l -0.21692,0.0046 C 12.12231,22.11823 10,24.31122 10,27 v 11.97668 c -3.7e-4,0.01544 -3.7e-4,0.03088 0,0.04639 v 4.95392 c -3.7e-4,0.01538 -3.7e-4,0.03088 0,0.04633 V 59 l 0.0046,0.21692 c 0.10205,2.3894 1.88092,4.34448 4.18982,4.71851 C 23.11658,63.9933 19.978706,64 23,64 l 0.11658,-0.0067 C 23.61401,63.93549 24,63.51282 24,63 24,62.44769 23.55231,62 23,62 Z M 12,39.72058 16.49298,38.22198 17.60797,40.453 12,42.55682 Z"
       id="path10"
       inkscape:connector-curvature="0"
       sodipodi:nodetypes="cccccccccccssssssssssccssccsscsscccscsscccsscccscccsccccsccccsccccscccccsscsccscccsccccccsccscccscccccccccssccccc" />
  </g>
</svg>
