<svg width="80px" height="80px" viewBox="0 0 80 80" xmlns="http://www.w3.org/2000/svg">
  <style>
    .fr-artwork-decorative {
      fill: #ECECFF;
    }
    .fr-artwork-minor {
      fill: #E1000F;
    }
    .fr-artwork-major {
      fill: #000091;
    }
  </style>

  <symbol id="artwork-decorative">
    <path d="..."/>
  </symbol>
  <symbol id="artwork-minor">
    <path d="..." />
  </symbol>
  <symbol id="artwork-major">
    <path d="M20 49.3335V32.0002C20 25.3727 25.3726 20.0002 32 20.0002C38.6275 20.0002 44 25.3727 44 32.0002V50.6668C44 54.3487 46.9848 57.3335 50.6667 57.3335C54.3485 57.3335 57.3333 54.3487 57.3333 50.6668V32.8783C54.2261 31.7801 52 28.8167 52 25.3335C52 20.9152 55.5816 17.3335 60 17.3335C64.4184 17.3335 68 20.9152 68 25.3335C68 28.8167 65.7739 31.7801 62.6667 32.8783V50.6668C62.6667 57.2943 57.2941 62.6668 50.6667 62.6668C44.0392 62.6668 38.6667 57.2943 38.6667 50.6668V32.0002C38.6667 28.3183 35.6819 25.3335 32 25.3335C28.3181 25.3335 25.3333 28.3183 25.3333 32.0002V49.3335H33.3333L22.6667 62.6668L12 49.3335H20ZM60 28.0002C61.4728 28.0002 62.6667 26.8062 62.6667 25.3335C62.6667 23.8607 61.4728 22.6668 60 22.6668C58.5272 22.6668 57.3333 23.8607 57.3333 25.3335C57.3333 26.8062 58.5272 28.0002 60 28.0002Z" />
  </symbol>

  <use class="fr-artwork-decorative" href="#artwork-decorative"/>
  <use class="fr-artwork-minor" href="#artwork-minor"/>
  <use class="fr-artwork-major" href="#artwork-major"/>
</svg>