<svg width="80px" height="80px" viewBox="0 0 80 80" xmlns="http://www.w3.org/2000/svg">
  <symbol id="artwork-minor">
    <path fill="#C9FCAC" d="M80 40C80 62.0914 62.0914 80 40 80C17.9086 80 0 62.0914 0 40C0 17.9086 17.9086 0 40 0C62.0914 0 80 17.9086 80 40Z"/>
  </symbol>
  <symbol id="artwork-major">
    <path fill="#161616" d="M58 21C59.1046 21 60 21.8954 60 23V51C60 52.1046 59.1046 53 58 53H28.91L20 60V23C20 21.8954 20.8954 21 22 21H58ZM56 25H24V51.77L27.526 49H56V25ZM42 35V39H38V35H42ZM34 35V39H30V35H34ZM50 35V39H46V35H50Z"/>
  </symbol>
  <use class="fr-artwork-decorative" href="#artwork-decorative"/>
  <use class="fr-artwork-minor" href="#artwork-minor"/>
  <use class="fr-artwork-major" href="#artwork-major"/>
</svg>
