<?xml version="1.0" encoding="UTF-8" standalone="no"?>
<svg
   xmlns:dc="http://purl.org/dc/elements/1.1/"
   xmlns:cc="http://creativecommons.org/ns#"
   xmlns:rdf="http://www.w3.org/1999/02/22-rdf-syntax-ns#"
   xmlns:svg="http://www.w3.org/2000/svg"
   xmlns="http://www.w3.org/2000/svg"
   xmlns:sodipodi="http://sodipodi.sourceforge.net/DTD/sodipodi-0.dtd"
   xmlns:inkscape="http://www.inkscape.org/namespaces/inkscape"
   width="80px"
   height="80px"
   viewBox="0 0 80 80"
   version="1.1"
   id="svg13"
   sodipodi:docname="raster.svg"
   inkscape:version="0.92.5 (2060ec1f9f, 2020-04-08)">
  <metadata
     id="metadata19">
    <rdf:RDF>
      <cc:Work
         rdf:about="">
        <dc:format>image/svg+xml</dc:format>
        <dc:type
           rdf:resource="http://purl.org/dc/dcmitype/StillImage" />
      </cc:Work>
    </rdf:RDF>
  </metadata>
  <defs
     id="defs17" />
  <sodipodi:namedview
     pagecolor="#ffffff"
     bordercolor="#666666"
     borderopacity="1"
     objecttolerance="10"
     gridtolerance="10"
     guidetolerance="10"
     inkscape:pageopacity="0"
     inkscape:pageshadow="2"
     inkscape:window-width="1920"
     inkscape:window-height="1131"
     id="namedview15"
     showgrid="false"
     inkscape:zoom="8.34386"
     inkscape:cx="43.20844"
     inkscape:cy="46.552156"
     inkscape:window-x="1920"
     inkscape:window-y="0"
     inkscape:window-maximized="1"
     inkscape:current-layer="svg13" />
  <style
     id="style2">
		.fr-artwork-decorative {
			fill: #ECECFF;
		}
		.fr-artwork-minor {
			fill: #E1000F;
		}
		.fr-artwork-major {
			fill: #000091;
		}
	</style>
  <g
     class="fr-artwork-decorative"
     id="artwork-decorative">
    <path
       d="M8,17c-0.5514,0-1-0.4486-1-1c0-0.5514,0.4486-1,1-1s1,0.4486,1,1C9,16.5514,8.5514,17,8,17z M65,72  c-0.5514,0-1-0.4486-1-1s0.4486-1,1-1s1,0.4486,1,1S65.5514,72,65,72z M66,11c-0.5514,0-1-0.4486-1-1c0-0.55145,0.4486-1,1-1  s1,0.44855,1,1C67,10.5514,66.5514,11,66,11z M21,77c-0.5514,0-1-0.4486-1-1s0.4486-1,1-1s1,0.4486,1,1S21.5514,77,21,77z"
       id="path4" />
  </g>
  <g
     class="fr-artwork-minor"
     id="artwork-minor"
     style="fill:#e1000f">
    <path
       inkscape:connector-curvature="0"
       d="M40 19C40 18.4477 39.5523 18 39 18H23L22.8834 18.0067C22.386 18.0645 22 18.4872 22 19C22 19.5523 22.4477 20 23 20H39L39.1166 19.9933C39.614 19.9355 40 19.5128 40 19Z
M55 48C47.8203 48 42 53.8203 42 61C42 68.1797 47.8203 74 55 74C62.1797 74 68 68.1797 68 61C68 53.8203 62.1797 48 55 48ZM55 50C61.0751 50 66 54.9249 66 61C66 67.0751 61.0751 72 55 72C48.9249 72 44 67.0751 44 61C44 54.9249 48.9249 50 55 50Z
M49 24C49.5523 24 50 24.4477 50 25C50 25.5128 49.614 25.9355 49.1166 25.9933L49 26H23C22.4477 26 22 25.5523 22 25C22 24.4872 22.386 24.0645 22.8834 24.0067L23 24H49Z
M44 31C44 30.4477 43.5523 30 43 30H23L22.8834 30.0067C22.386 30.0645 22 30.4872 22 31C22 31.5523 22.4477 32 23 32H43L43.1166 31.9933C43.614 31.9355 44 31.5128 44 31Z
M59 57L59.1166 56.9933C59.614 56.9355 60 56.5128 60 56C60 55.4477 59.5523 55 59 55H51L50.8834 55.0067C50.386 55.0645 50 55.4872 50 56C50 56.5523 50.4477 57 51 57H59Z
M55 69C54.4872 69 54.0645 68.614 54.0067 68.1166L54 68V62.4142L51.7071 64.7071C51.3166 65.0976 50.6834 65.0976 50.2929 64.7071C49.9324 64.3466 49.9047 63.7794 50.2097 63.3871L50.2929 63.2929L54.2929 59.2929C54.3894 59.1964 54.5006 59.1238 54.6194 59.075C54.7217 59.0328 54.8325 59.0072 54.9485 59.0013L54.971 59.0004C54.9807 59.0001 54.9903 59 55 59C55.017 59 55.0338 59.0004 55.0506 59.0013C55.1678 59.0071 55.2798 59.0331 55.383 59.076C55.4639 59.1095 55.5413 59.154 55.6129 59.2097C55.6456 59.2351 55.6771 59.2629 55.7071 59.2929L59.7071 63.2929C60.0976 63.6834 60.0976 64.3166 59.7071 64.7071C59.3466 65.0676 58.7794 65.0953 58.3871 64.7903L58.2929 64.7071L56 62.4142V68C56 68.5523 55.5523 69 55 69Z"
       id="path7-3" />
  </g>
  <g
     class="fr-artwork-major"
     id="artwork-major">
    <path
       d="M55 12C55.5128 12 55.9355 12.386 55.9933 12.8834L56 13V45C56 45.5523 55.5523 46 55 46C54.4872 46 54.0645 45.614 54.0067 45.1166L54 45V14H18V66H39C39.5128 66 39.9355 66.386 39.9933 66.8834L40 67C40 67.5128 39.614 67.9355 39.1166 67.9933L39 68H17C16.4872 68 16.0645 67.614 16.0067 67.1166L16 67V13C16 12.4872 16.386 12.0645 16.8834 12.0067L17 12H55Z
M49 36C49.5523 36 50 36.4477 50 37C50 37.5128 49.614 37.9355 49.1166 37.9933L49 38H23C22.4477 38 22 37.5523 22 37C22 36.4872 22.386 36.0645 22.8834 36.0067L23 36H49Z
M42 49C42 48.4477 41.5523 48 41 48H23L22.8834 48.0067C22.386 48.0645 22 48.4872 22 49C22 49.5523 22.4477 50 23 50H41L41.1166 49.9933C41.614 49.9355 42 49.5128 42 49Z
M59 12C59.5128 12 59.9355 12.386 59.9933 12.8834L60 13V45C60 45.5523 59.5523 46 59 46C58.4872 46 58.0645 45.614 58.0067 45.1166L58 45V13C58 12.4477 58.4477 12 59 12Z
M46 43C46 42.4477 45.5523 42 45 42H23L22.8834 42.0067C22.386 42.0645 22 42.4872 22 43C22 43.5523 22.4477 44 23 44H45L45.1166 43.9933C45.614 43.9355 46 43.5128 46 43Z
M33 60C33.5523 60 34 60.4477 34 61C34 61.5128 33.614 61.9355 33.1166 61.9933L33 62H23C22.4477 62 22 61.5523 22 61C22 60.4872 22.386 60.0645 22.8834 60.0067L23 60H33Z"
       id="path10" />
  </g>
</svg>
