<svg width="80px" height="80px" viewBox="0 0 80 80" xmlns="http://www.w3.org/2000/svg">
  <symbol id="artwork-minor">
    <path fill="#FDE39C" d="M80 40C80 62.0914 62.0914 80 40 80C17.9086 80 0 62.0914 0 40C0 17.9086 17.9086 0 40 0C62.0914 0 80 17.9086 80 40Z"/>
  </symbol>
  <symbol id="artwork-major">
    <path fill="#161616" d="M55.098 21.5846L61.088 27.5726C61.801 28.2859 61.8713 29.4186 61.252 30.2146L53.572 40.0906C54.6692 44.566 53.6499 49.2974 50.8074 52.9241C47.9648 56.5508 43.6139 58.6708 39.006 58.6746C32 58.6746 23 55.6706 18 52.6706C23.6604 48.4039 24.3521 45.3408 24.6051 42.7116L24.6485 42.2236C24.7227 41.3374 24.7785 40.4968 25 39.6706C27.116 31.7706 34.684 27.1566 42.578 29.1026H42.58L52.458 21.4206C53.2537 20.8025 54.3849 20.8728 55.098 21.5846ZM28.864 40.7046C28.778 41.0246 28.732 41.3846 28.656 42.2866C28.348 46.0266 27.468 48.8166 25.056 51.6466C29.576 53.4226 34.932 54.6746 39.004 54.6746C43.9804 54.6684 48.334 51.3249 49.624 46.5186C50.6262 42.7877 49.5966 38.8046 46.912 36.0266L46.628 35.7426C45.2896 34.452 43.6446 33.5235 41.848 33.0446C36.034 31.4886 30.45 34.7826 28.864 40.7046ZM53.52 25.6606L47.156 30.6106L49.406 32.8606C49.536 32.9866 49.666 33.1166 49.792 33.2486L52.062 35.5166L57.012 29.1526L53.52 25.6606Z"/>
  </symbol>
  <use class="fr-artwork-decorative" href="#artwork-decorative"/>
  <use class="fr-artwork-minor" href="#artwork-minor"/>
  <use class="fr-artwork-major" href="#artwork-major"/>
</svg>
