<svg width="80px" height="80px" viewBox="0 0 80 80" xmlns="http://www.w3.org/2000/svg">
  <style>
    .fr-artwork-decorative {
      fill: #ECECFF;
    }
    .fr-artwork-minor {
      fill: #E1000F;
    }
    .fr-artwork-major {
      fill: #000091;
    }
  </style>

  <symbol id="artwork-decorative">
    <path d="..."/>
  </symbol>
  <symbol id="artwork-minor">
    <path d="..." />
  </symbol>
  <symbol id="artwork-major">
    <path d="M42.4894 13.3902C43.2734 13.1985 44.0987 13.5034 44.5451 14.1481L45.1222 14.977H45.4222C46.2687 14.977 47.002 15.5106 47.2459 16.3059L47.3504 16.6407C47.7849 16.7331 48.1731 16.9724 48.4469 17.3164C48.6189 17.349 48.7844 17.405 48.9428 17.4841L49.7077 17.8585C50.0398 18.0241 50.3082 18.2708 50.4917 18.571L51.121 18.4225C51.6763 18.2858 52.2839 18.4161 52.7444 18.7707C53.2072 19.1286 53.4723 19.6643 53.4723 20.2406V20.9093L54.7653 21.7686C55.0582 21.7521 55.3625 21.8044 55.6385 21.9241L55.8459 22.0122L56.11 21.9059C56.5188 21.7446 56.9679 21.7227 57.3784 21.8434L58.4139 22.1479C58.7781 22.2552 59.0982 22.464 59.3388 22.7525L60.0869 23.6481L61.081 23.5483C61.4805 23.5152 61.8453 23.5873 62.1736 23.7592L62.779 24.0792L63.6609 24.0947C64.0142 24.1021 64.3561 24.2036 64.6506 24.3884L65.4199 24.8659C66.2534 25.3877 66.5452 26.4645 66.0851 27.3185L65.256 28.8615L65.2135 29.3251C65.1988 29.4757 65.1689 29.6141 65.1221 29.7508L64.5292 31.4311L64.5755 34.217C64.5869 34.782 64.3381 35.3167 63.8923 35.682L62.8056 36.5707C62.6156 36.7256 62.3957 36.8426 62.16 36.9163L60.2943 39.276C60.9334 39.4346 61.4642 39.9105 61.6586 40.5615L61.8616 41.2436L62.1213 41.5641L62.731 42.4555C63.1715 43.106 63.154 43.9627 62.6886 44.5919L63.4088 45.4358C63.7159 45.8 63.8721 46.2567 63.8498 46.7235L63.7981 47.6955C63.766 48.2478 63.4845 48.7552 63.0495 49.0831L63.1845 49.2092C63.6026 49.598 63.8161 50.1487 63.7676 50.7175C63.7355 51.0983 63.5879 51.454 63.3457 51.744L63.5722 51.8984L63.8128 51.8145C64.7459 51.493 65.7639 51.9117 66.1804 52.7887L66.4934 53.4548C66.7852 54.0797 66.7041 54.8082 66.2828 55.3551L66.1777 55.5014C66.2779 56.1424 66.0312 56.7897 65.5157 57.2132L63.595 58.7765L62.7632 59.3005C62.7751 59.5894 62.7185 59.88 62.596 60.1465C62.3919 60.5968 61.9999 60.9557 61.523 61.1298L59.8413 61.7387C59.6867 61.791 59.568 61.8204 59.4445 61.8369L58.1847 62.0132C57.9457 62.0468 57.6936 62.0351 57.4563 61.9769L54.8693 61.3851L53.1473 60.8927C53.1021 60.8798 53.058 60.8654 53.015 60.8494C52.6209 60.8985 52.2213 60.8259 51.8718 60.6416L51.2794 60.3206C50.796 60.4178 50.2902 60.3286 49.8721 60.0669L48.2493 61.0251L47.7386 62.041L48.2351 63.7544C48.3734 64.2372 48.3075 64.7606 48.0565 65.1922C47.8127 65.6179 47.3913 65.9383 46.9013 66.0697L44.8516 66.6043C44.7057 66.6444 44.5342 66.6668 44.3622 66.6668L44.0895 66.646L42.3729 66.3458L41.5944 66.5018C41.1883 66.5803 40.762 66.5296 40.394 66.3581L39.4772 65.9212C38.9987 65.6937 38.6388 65.2755 38.4853 64.7809L37.7335 64.4791L37.4188 64.4124C37.353 64.4914 37.2811 64.5641 37.2027 64.6319C36.7851 64.9919 36.2304 65.1559 35.68 65.0779L32.438 64.649C32.1805 64.6153 31.9377 64.5315 31.7145 64.4006L31.1663 64.0834H30.3426C29.8194 64.0834 29.3142 63.8692 28.956 63.4953L28.4002 62.9164L26.5427 62.1328C26.1643 61.9731 25.8431 61.6906 25.6389 61.3376L25.26 60.6844L24.4657 60.2549C23.9681 59.9831 23.6225 59.5168 23.5141 58.9736C23.408 58.4224 23.5528 57.8611 23.9115 57.4317L25.1484 55.9554L25.8344 52.2771C25.8496 52.1937 25.8714 52.1115 25.8981 52.0303C25.7919 51.7531 25.7549 51.4545 25.7908 51.1544L26.3581 46.2962C26.3684 46.2065 26.3853 46.1173 26.4087 46.0302C26.2552 45.7605 26.1703 45.4544 26.1659 45.1436C26.1583 44.6122 26.3815 44.1032 26.7784 43.7437C26.6782 43.5584 26.6118 43.3656 26.5786 43.1664L25.7043 42.7263C25.4451 42.5959 25.2165 42.4063 25.0444 42.1777L23.5544 40.2368C23.3922 40.0253 23.2795 39.7876 23.219 39.5302L22.777 37.5647L22.7721 37.5423L22.5745 37.4082C22.4101 37.2971 22.2652 37.162 22.1433 37.006L21.5014 36.1723L17.9209 34.7756H16.8914C16.2174 34.7756 15.587 34.421 15.2467 33.8495L14.809 33.1172C14.5695 32.7204 14.4944 32.2445 14.5875 31.7959C14.245 31.5651 13.987 31.2377 13.8536 30.8628L13.4399 29.6947C13.1187 28.7857 13.5455 27.7944 14.4329 27.3874L17.1451 26.1456C17.3639 26.0489 17.5725 25.995 17.7891 25.9774L21.5243 25.6478C22.1139 25.611 22.6643 25.8107 23.0541 26.2001L23.7455 26.8896L23.8908 26.8335C24.2278 26.7048 24.5904 26.6717 24.9394 26.7369L25.4397 26.8255L24.7641 25.2366L24.2589 23.2182C24.1255 22.6766 24.2409 22.1105 24.5763 21.664C24.9111 21.2142 25.4321 20.9376 26.0048 20.9061L27.5357 20.8297C28.0485 20.78 28.6283 21.0049 29.0241 21.4199L30.3372 22.8037L32.0417 23.1338L32.0597 22.9218C32.1212 22.1815 32.6253 21.5475 33.3445 21.3077L36.5793 20.2192L37.4471 19.4405L37.3236 17.5476C37.305 17.2427 37.3617 16.9377 37.4869 16.6626L38.163 15.2088C38.4026 14.6945 38.8593 14.3185 39.4157 14.1759L42.4894 13.3902ZM41.9875 18.6668L41.107 18.8822L41.0121 19.0776L41.1593 21.2514C41.1945 21.7858 40.9742 22.2977 40.5544 22.6574L38.7603 24.2001C38.5662 24.3664 38.3427 24.4901 38.0963 24.5677L36.1304 25.2008L36.7368 25.6201L35.9821 25.9812C35.8275 26.413 35.4957 26.7786 35.0584 26.9875L33.7704 27.6041C33.3944 27.7794 32.9688 27.8355 32.5682 27.7629L29.3943 27.1758C29.3948 27.1813 29.3954 27.1868 29.3959 27.1923L29.5479 29.3216C29.6124 30.2347 28.9356 31.0296 27.974 31.1714L27.1633 31.2901C26.9537 31.3201 26.7425 31.3181 26.5356 31.2816L24.9655 31.0146L24.1681 31.3081C23.4668 31.5646 22.6758 31.4053 22.1532 30.9034L21.231 30.0238L18.7686 30.2312L18.6667 30.2753C19.0651 30.6254 19.2774 31.1188 19.2566 31.6227C19.2651 31.6257 19.2736 31.6292 19.2822 31.6322L23.6193 33.2515C23.9494 33.3792 24.2172 33.5726 24.4209 33.827L24.9713 34.5117C25.3345 34.4837 25.7047 34.5543 26.0279 34.7206L27.0897 35.2671C27.5175 35.488 27.8359 35.8601 27.9778 36.2934L29.4535 37.0522L27.8668 37.5771C27.686 37.9212 27.3884 38.2027 27.0236 38.374L27.957 39.5371L29.5986 40.328C30.3629 40.6986 30.7597 41.5041 30.565 42.2869L30.5469 42.3606L30.9026 42.9917C31.1874 43.4966 31.1879 44.0871 30.9314 44.581L31.0823 44.6992C31.3575 44.9201 31.5565 45.1986 31.6621 45.5081L32.6941 48.4408C32.8498 48.872 32.8125 49.3499 32.5981 49.7611L33.2984 51.7501L31.373 50.6897C31.1346 50.7453 30.8871 50.7564 30.6466 50.7223C30.597 50.8871 30.5218 51.0464 30.4215 51.1936L29.6076 52.3973L28.9143 55.957C28.8578 56.251 28.7196 56.529 28.5159 56.7599L28.3132 56.9918C28.3543 57.0449 28.3922 57.101 28.4268 57.1591L28.7458 57.6851L30.3458 58.3312C30.5933 58.4354 30.7943 58.5676 30.9671 58.7394L31.2247 58.9969H31.7335C32.0621 58.9969 32.3874 59.0795 32.6733 59.2353L33.3432 59.607L34.3661 59.7357C34.4674 59.5974 34.5901 59.4722 34.7298 59.365C35.1704 59.0339 35.7341 58.9057 36.2787 59.0074L38.8926 59.5634L40.732 60.2646C41.1737 60.4374 41.5203 60.7505 41.7171 61.1391L41.8057 61.1221C41.9278 61.0981 42.0542 61.0866 42.1795 61.0866L42.4542 61.1071L43.8046 61.3335L43.6724 60.8957C43.5454 60.469 43.5913 60.0202 43.7998 59.6295L44.8569 57.6215C45.0142 57.3194 45.2622 57.067 45.5732 56.8927L48.6788 55.1381C49.2266 54.823 49.9028 54.802 50.4708 55.069C50.9183 54.8325 51.4282 54.7779 51.9119 54.9102L52.5919 55.1055C52.6218 55.1145 52.6517 55.1236 52.681 55.1341C53.2714 54.9077 53.9498 54.9778 54.4784 55.3369L55.4917 56.0271C55.76 56.2085 55.9706 56.4539 56.1034 56.7349L57.5136 57.0414L58.2112 56.9488L58.3509 56.8997C58.4187 56.7379 58.5125 56.5851 58.6277 56.4489L59.2373 55.7331C59.3723 55.5774 59.5195 55.4541 59.6896 55.352L60.8656 54.6442L61.3334 54.2756L59.8075 53.2803C59.3125 52.9592 59.0128 52.4288 59.0053 51.8618L58.9803 50.1638L58.3451 49.5938C57.9787 49.2707 57.7669 48.8074 57.7669 48.3261V47.7085C57.7669 47.0027 58.2133 46.3701 58.9045 46.0941L58.6565 45.8162C58.3952 45.5186 58.2469 45.1645 58.2251 44.7893L58.1749 44.014C58.1707 43.9414 58.1712 43.8692 58.1755 43.7976C57.9451 43.9494 57.6784 44.0526 57.3979 44.0946C56.9002 44.1678 56.3824 44.048 55.9786 43.763L55.4405 43.3769C54.7856 42.908 54.5344 42.0761 54.8304 41.3528L55.1141 40.6611L55.193 39.7705C55.2186 39.483 55.3205 39.204 55.4869 38.9626L56.6784 37.2531L57.9093 35.7589C57.88 35.5541 57.8891 35.3447 57.9376 35.1419C58.0571 34.636 58.4064 34.2077 58.896 33.9678L59.5307 33.6577C59.7408 33.5546 59.9691 33.4909 60.2011 33.4684L60.1696 31.6312C60.1659 31.4213 60.2016 31.2144 60.2768 31.0161L60.8806 29.3782L60.9355 28.8067C60.9499 28.6569 60.9851 28.5107 61.039 28.3694C60.9632 28.3424 60.8891 28.3108 60.8182 28.2743L60.3408 28.0328L58.9381 28.1681C58.2752 28.2126 57.6875 27.9787 57.2997 27.5304L56.3717 26.4651L56.0906 26.5728C55.6304 26.7516 55.1013 26.7471 54.6421 26.5602L54.1354 26.3544L53.9941 26.3654C53.577 26.3969 53.1557 26.2938 52.8117 26.0814L50.5167 24.6208C50.3828 24.5362 50.2612 24.4345 50.1556 24.3203C49.9786 24.3373 49.7983 24.3298 49.6212 24.2977L48.3935 24.0864C47.5823 23.9466 46.9572 23.3105 46.874 22.5392L46.8431 22.2567C46.3236 22.1645 45.8574 21.865 45.5785 21.4207L45.5518 21.3781C45.2596 21.31 44.986 21.1757 44.7609 20.9879L44.3038 20.6062C44.1886 20.5096 44.0878 20.4029 44.0025 20.2852C43.4494 20.2436 42.9395 19.9711 42.6158 19.5298L41.9875 18.6668Z" />
  </symbol>

  <use class="fr-artwork-decorative" href="#artwork-decorative"/>
  <use class="fr-artwork-minor" href="#artwork-minor"/>
  <use class="fr-artwork-major" href="#artwork-major"/>
</svg>
