<svg width="80px" height="80px" viewBox="0 0 80 80" xmlns="http://www.w3.org/2000/svg">
  <style>
    .fr-artwork-decorative {
      fill: #ECECFF;
    }
    .fr-artwork-minor {
      fill: #E1000F;
    }
    .fr-artwork-major {
      fill: #000091;
    }
  </style>

  <symbol id="artwork-decorative">
    <path d="..."/>
  </symbol>
  <symbol id="artwork-minor">
    <path d="..." />
  </symbol>
  <symbol id="artwork-major">
    <path d="M50.3932 43.5256C54.7289 40.1072 57.5124 34.8078 57.5124 28.8582H62.8457C62.8457 36.7835 59.0044 43.8118 53.0817 48.1822L59.822 59.8566C61.2945 62.4072 60.4206 65.6691 57.8697 67.1419L48.4652 50.8528C45.5201 52.1424 42.2665 52.8582 38.8457 52.8582C35.4249 52.8582 32.1714 52.1424 29.2264 50.8528L19.8219 67.1419C17.271 65.6691 16.397 62.4072 17.8697 59.8566L31.3724 36.4691C29.4015 34.5336 28.1791 31.8387 28.1791 28.8582C28.1791 23.8879 31.5785 19.7116 36.179 18.5275V12.8582H41.5124V18.5275C46.1132 19.7116 49.5124 23.8879 49.5124 28.8582C49.5124 31.8387 48.29 34.5336 46.319 36.4691L50.3932 43.5256ZM45.7764 46.1958L41.7017 39.1382C40.7929 39.3902 39.835 39.5248 38.8457 39.5248C37.8566 39.5248 36.8988 39.3902 35.9897 39.1382L31.9151 46.1958C34.058 47.0531 36.3969 47.5248 38.8457 47.5248C41.2948 47.5248 43.6337 47.0531 45.7764 46.1958ZM38.8457 34.1915C41.7913 34.1915 44.179 31.8037 44.179 28.8582C44.179 25.9126 41.7913 23.5248 38.8457 23.5248C35.9004 23.5248 33.5124 25.9126 33.5124 28.8582C33.5124 31.8037 35.9004 34.1915 38.8457 34.1915Z" />
  </symbol>

  <use class="fr-artwork-decorative" href="#artwork-decorative"/>
  <use class="fr-artwork-minor" href="#artwork-minor"/>
  <use class="fr-artwork-major" href="#artwork-major"/>
</svg>