<?xml version="1.0" encoding="UTF-8" standalone="no"?>
<svg
   xmlns:dc="http://purl.org/dc/elements/1.1/"
   xmlns:cc="http://creativecommons.org/ns#"
   xmlns:rdf="http://www.w3.org/1999/02/22-rdf-syntax-ns#"
   xmlns:svg="http://www.w3.org/2000/svg"
   xmlns="http://www.w3.org/2000/svg"
   xmlns:sodipodi="http://sodipodi.sourceforge.net/DTD/sodipodi-0.dtd"
   xmlns:inkscape="http://www.inkscape.org/namespaces/inkscape"
   width="80px"
   height="80px"
   viewBox="0 0 80 80"
   version="1.1"
   id="svg13"
   sodipodi:docname="raster.svg"
   inkscape:version="0.92.5 (2060ec1f9f, 2020-04-08)">
  <metadata
     id="metadata19">
    <rdf:RDF>
      <cc:Work
         rdf:about="">
        <dc:format>image/svg+xml</dc:format>
        <dc:type
           rdf:resource="http://purl.org/dc/dcmitype/StillImage" />
      </cc:Work>
    </rdf:RDF>
  </metadata>
  <defs
     id="defs17" />
  <sodipodi:namedview
     pagecolor="#ffffff"
     bordercolor="#666666"
     borderopacity="1"
     objecttolerance="10"
     gridtolerance="10"
     guidetolerance="10"
     inkscape:pageopacity="0"
     inkscape:pageshadow="2"
     inkscape:window-width="1920"
     inkscape:window-height="1131"
     id="namedview15"
     showgrid="false"
     inkscape:zoom="8.34386"
     inkscape:cx="43.20844"
     inkscape:cy="46.552156"
     inkscape:window-x="1920"
     inkscape:window-y="0"
     inkscape:window-maximized="1"
     inkscape:current-layer="svg13" />
  <style
     id="style2">
		.fr-artwork-decorative {
			fill: #ECECFF;
		}
		.fr-artwork-minor {
			fill: #E1000F;
		}
		.fr-artwork-major {
			fill: #000091;
		}
	</style>
  <g
     class="fr-artwork-decorative"
     id="artwork-decorative">
    <path
       d="M8,17c-0.5514,0-1-0.4486-1-1c0-0.5514,0.4486-1,1-1s1,0.4486,1,1C9,16.5514,8.5514,17,8,17z M65,72  c-0.5514,0-1-0.4486-1-1s0.4486-1,1-1s1,0.4486,1,1S65.5514,72,65,72z M66,11c-0.5514,0-1-0.4486-1-1c0-0.55145,0.4486-1,1-1  s1,0.44855,1,1C67,10.5514,66.5514,11,66,11z M21,77c-0.5514,0-1-0.4486-1-1s0.4486-1,1-1s1,0.4486,1,1S21.5514,77,21,77z"
       id="path4" />
  </g>
  <g
     class="fr-artwork-minor"
     id="artwork-minor"
     transform="translate(-79.661017,27.79661)"
     style="fill:#e1000f">
    <path
       inkscape:connector-curvature="0"
       d="m 130.19315,-6.1885047 -0.007,-0.11658 v -2 c 0,-0.55231 0.44769,-1.0000001 1,-1.0000001 0.51282,0 0.93549,0.3859901 0.99329,0.8834201 l 0.007,0.11658 v 2 c 0,0.55231 -0.44769,1 -1,1 -0.51282,0 -0.93549,-0.38599 -0.99329,-0.88342 z m 3.99329,7.88342 c 0,1.65692 -1.34308,3 -3,3 -1.65692,0 -3,-1.34308 -3,-3 0,-1.65692005 1.34308,-3 3,-3 1.65692,0 3,1.34307995 3,3 z m -2,0 c 0,-0.55231 -0.44769,-1.00000005 -1,-1.00000005 -0.55231,0 -1,0.44769005 -1,1.00000005 0,0.55231 0.44769,1 1,1 0.55231,0 1,-0.44769 1,-1 z m -8.88342,0.99329 c 0.49743,-0.0578 0.88342,-0.48047 0.88342,-0.99329 0,-0.55231 -0.44769,-1.00000005 -1,-1.00000005 h -2 l -0.11658,0.0067 c -0.49743,0.05781 -0.88342,0.48048005 -0.88342,0.99330005 0,0.55231 0.44769,1 1,1 h 2 z m 17.88342,-1.99329005 h -2 l -0.11658,0.0067 c -0.49743,0.05781 -0.88342,0.48048005 -0.88342,0.99330005 0,0.55231 0.44769,1 1,1 h 2 l 0.11658,-0.0067 c 0.49743,-0.05781 0.88342,-0.48048 0.88342,-0.9933 0,-0.55231 -0.44769,-1.00000005 -1,-1.00000005 z m -10,8.00000005 c -0.55231,0 -1,0.44769 -1,1 v 1.9999997 l 0.007,0.11658 c 0.0578,0.49743 0.48048,0.88342 0.9933,0.88342 0.55231,0 1,-0.44769 1,-1 V 9.6949153 l -0.007,-0.11658 c -0.0578,-0.49743 -0.48048,-0.88342 -0.9933,-0.88342 z m -6.36401,-14.7782 -0.0872,-0.0777 c -0.39252,-0.31079 -0.96436,-0.28491 -1.32703,0.0777 -0.3905,0.3905 -0.3905,1.02368 0,1.41418 l 1.41418,1.41431 0.0873,0.0777 c 0.39246,0.31079 0.96429,0.28491 1.32697,-0.0777 0.3905,-0.39056 0.3905,-1.02368 0,-1.41431 z m 12.72802,12.72791 -0.0873,-0.0777 c -0.39246,-0.31079 -0.96429,-0.28491 -1.32697,0.0777 -0.3905,0.39056 -0.3905,1.02368 0,1.41431 l 1.41431,1.41418 0.0872,0.0777 c 0.39252,0.31079 0.96436,0.28491 1.32703,-0.0777 0.3905,-0.39062 0.3905,-1.02368 0,-1.41418 z m 0,-9.89942 1.41418,-1.41431 0.0777,-0.08716 c 0.31079,-0.39252 0.28491,-0.96436 -0.0777,-1.32703 -0.39062,-0.3905 -1.02368,-0.3905 -1.41418,0 l -1.41431,1.41418 -0.0777,0.08734 c -0.31079,0.39246 -0.28491,0.96429 0.0777,1.32697 0.39063,0.39052 1.02369,0.39052 1.41431,1e-5 z m -12.72802,9.89942 -1.41418,1.41431 -0.0777,0.08716 c -0.31079,0.39252 -0.28491,0.96436 0.0777,1.32703 0.3905,0.3905 1.02368,0.3905 1.41418,0 l 1.41431,-1.41418 0.0777,-0.08734 c 0.31079,-0.39246 0.28491,-0.96429 -0.0777,-1.32697 -0.39057,-0.39052 -1.02369,-0.39052 -1.41431,-10e-6 z"
       id="path7-3" />
  </g>
  <g
     class="fr-artwork-major"
     id="artwork-major">
    <path
       inkscape:connector-curvature="0"
       d="m 17.772547,49.987069 c -0.414,-0.29755 -0.53296,-0.85284 -0.29529,-1.28925 l 0.06689,-0.10638 12.9411,-18.005 c 0.38031,-0.52917 1.14551,-0.55219 1.56122,-0.0791 l 0.07831,0.1012 19,28 c 0.31012,0.45703 0.19098,1.07892 -0.26599,1.38904 -0.42444,0.2879 -0.99091,0.20581 -1.31793,-0.17334 l -0.07111,-0.09265 -10.55969,-15.56154 h -10.61279 c -0.55231,0 -1,-0.44769 -1,-1 0,-0.51282 0.38599,-0.93549 0.88342,-0.99329 l 0.11658,-0.0067 h 9.25562 l -1.35724,-2 h -5.89838 c -0.55231,0 -1,-0.44769 -1,-1 0,-0.51282 0.38599,-0.93549 0.88342,-0.99329 l 0.11658,-0.0067 h 4.54132 l -3.56531,-5.25403 -12.1051,16.84265 c -0.29749,0.414 -0.85278,0.53296 -1.28918,0.29529 z"
       id="path10-1"
       sodipodi:nodetypes="cccccccccccssccccssccccccc" />
    <path
       d="M57,12c5.9787,0,10.8434,4.7698,10.9963,10.7116L68,23v6c0,0.5523-0.4477,1-1,1  c-0.5128,0-0.9355-0.386-0.9933-0.8834L66,29v-6c0-4.8818-3.8868-8.8558-8.7346-8.9962L57,14H23  c-4.8818,0-8.8558,3.8868-8.9962,8.7346L14,23v34c0,4.8818,3.8868,8.8558,8.7346,8.9962L23,66h34  c4.8818,0,8.8558-3.8868,8.9962-8.7346L66,57V43c0-0.5523,0.4477-1,1-1c0.5128,0,0.9355,0.386,0.9933,0.8834L68,43v14  c0,5.9787-4.7698,10.8434-10.7116,10.9963L57,68H23c-5.9787,0-10.8434-4.7698-10.9963-10.7116L12,57V23  c0-5.9787,4.7698-10.8434,10.7116-10.9963L23,12H57z M70,31c0-0.5523,0.4477-1,1-1s1,0.4477,1,1s-0.4477,1-1,1S70,31.5523,70,31z   M71.9933,34.8834C71.9355,34.386,71.5128,34,71,34c-0.5523,0-1,0.4477-1,1v16l0.0067,0.1166C70.0645,51.614,70.4872,52,71,52  c0.5523,0,1-0.4477,1-1V35L71.9933,34.8834z"
       id="path10" />
  </g>
</svg>
