<?xml version="1.0" encoding="UTF-8" standalone="no"?>
<svg
   xmlns:dc="http://purl.org/dc/elements/1.1/"
   xmlns:cc="http://creativecommons.org/ns#"
   xmlns:rdf="http://www.w3.org/1999/02/22-rdf-syntax-ns#"
   xmlns:svg="http://www.w3.org/2000/svg"
   xmlns="http://www.w3.org/2000/svg"
   xmlns:sodipodi="http://sodipodi.sourceforge.net/DTD/sodipodi-0.dtd"
   xmlns:inkscape="http://www.inkscape.org/namespaces/inkscape"
   width="80px"
   height="80px"
   viewBox="0 0 80 80"
   version="1.1"
   id="svg13"
   sodipodi:docname="swagger.svg"
   inkscape:version="0.92.5 (2060ec1f9f, 2020-04-08)">
  <metadata
     id="metadata19">
    <rdf:RDF>
      <cc:Work
         rdf:about="">
        <dc:format>image/svg+xml</dc:format>
        <dc:type
           rdf:resource="http://purl.org/dc/dcmitype/StillImage" />
      </cc:Work>
    </rdf:RDF>
  </metadata>
  <defs
     id="defs17" />
  <sodipodi:namedview
     pagecolor="#ffffff"
     bordercolor="#666666"
     borderopacity="1"
     objecttolerance="10"
     gridtolerance="10"
     guidetolerance="10"
     inkscape:pageopacity="0"
     inkscape:pageshadow="2"
     inkscape:window-width="1920"
     inkscape:window-height="1131"
     id="namedview15"
     showgrid="false"
     inkscape:zoom="16.68772"
     inkscape:cx="31.630904"
     inkscape:cy="41.175659"
     inkscape:window-x="0"
     inkscape:window-y="0"
     inkscape:window-maximized="1"
     inkscape:current-layer="artwork-minor" />
  <style
     id="style2">
		.fr-artwork-decorative {
			fill: #ECECFF;
		}
		.fr-artwork-minor {
			fill: #E1000F;
		}
		.fr-artwork-major {
			fill: #000091;
		}
	</style>
  <g
     class="fr-artwork-decorative"
     id="artwork-decorative">
    <path
       d="M59,76c-0.5514,0-1-0.4486-1-1s0.4486-1,1-1s1,0.4486,1,1S59.5514,76,59,76z M67,12c-0.5514,0-1-0.4486-1-1  s0.4486-1,1-1s1,0.4486,1,1S67.5514,12,67,12z M9,16c-0.5514,0-1-0.4486-1-1s0.4486-1,1-1s1,0.4486,1,1S9.5514,16,9,16z"
       id="path4" />
  </g>
  <g
     class="fr-artwork-minor"
     id="artwork-minor">
    <g
       id="g915"
       transform="translate(-0.060346)">
      <path
         sodipodi:nodetypes="ssssssssscccccsccssccss"
         inkscape:connector-curvature="0"
         id="path7"
         d="m 27,40 h 35.288056 c 0.55231,0 1,-0.44769 1,-1 v -8 c 0,-0.55231 -0.44769,-1 -1,-1 H 27 c -0.55231,0 -1,0.44769 -1,1 v 8 c 0,0.55231 0.44769,1 1,1 z m 1,-8 h 33.288056 v 6 H 28 Z m 31.580319,3 c 0,0.51282 -0.38599,0.93549 -0.88342,0.99329 L 58.580319,36 H 37.824012 c -0.55231,0 -1,-0.44769 -1,-1 0,-0.51282 0.38599,-0.93549 0.88342,-0.99329 L 37.824012,34 h 20.756307 c 0.55231,0 1,0.44769 1,1 z" />
      <path
         sodipodi:nodetypes="sccssccss"
         inkscape:connector-curvature="0"
         id="path7-4"
         d="m 34.711312,35.000005 c 0,0.51282 -0.38599,0.93549 -0.88342,0.99329 l -0.11658,0.0067 h -2.958789 c -0.55231,0 -1,-0.44769 -1,-1 0,-0.51282 0.38599,-0.93549 0.88342,-0.99329 l 0.11658,-0.0067 h 2.958789 c 0.55231,0 1,0.44769 1,1 z" />
    </g>
    <g
       id="g919"
       style="fill:#000091;fill-opacity:1">
      <path
         sodipodi:nodetypes="ssssssssscccccsccssccss"
         inkscape:connector-curvature="0"
         id="path7-47"
         d="M 26.939654,52.880573 H 62.22771 c 0.55231,0 1,-0.44769 1,-1 v -8 c 0,-0.55231 -0.44769,-1 -1,-1 H 26.939654 c -0.55231,0 -1,0.44769 -1,1 v 8 c 0,0.55231 0.44769,1 1,1 z m 1,-8 H 61.22771 v 6 H 27.939654 Z m 31.580319,3 c 0,0.51282 -0.38599,0.93549 -0.88342,0.99329 l -0.11658,0.0067 H 37.763666 c -0.55231,0 -1,-0.44769 -1,-1 0,-0.51282 0.38599,-0.93549 0.88342,-0.99329 l 0.11658,-0.0067 h 20.756307 c 0.55231,0 1,0.44769 1,1 z"
         style="fill:#000091;fill-opacity:1" />
      <path
         sodipodi:nodetypes="sccssccss"
         inkscape:connector-curvature="0"
         id="path7-4-6"
         d="m 34.650966,47.880578 c 0,0.51282 -0.38599,0.93549 -0.88342,0.99329 l -0.11658,0.0067 h -2.958789 c -0.55231,0 -1,-0.44769 -1,-1 0,-0.51282 0.38599,-0.93549 0.88342,-0.99329 l 0.11658,-0.0067 h 2.958789 c 0.55231,0 1,0.44769 1,1 z"
         style="fill:#000091;fill-opacity:1" />
    </g>
  </g>
  <g
     class="fr-artwork-major"
     id="artwork-major">
    <path
       d="m 16,21 c 0,-0.55139 0.44861,-1 1,-1 0.55139,0 1,0.44861 1,1 0,0.55139 -0.44861,1 -1,1 -0.55139,0 -1,-0.44861 -1,-1 z m 5,1 c 0.55139,0 1,-0.44861 1,-1 0,-0.55139 -0.44861,-1 -1,-1 -0.55139,0 -1,0.44861 -1,1 0,0.55139 0.44861,1 1,1 z m 4,0 c 0.55139,0 1,-0.44861 1,-1 0,-0.55139 -0.44861,-1 -1,-1 -0.55139,0 -1,0.44861 -1,1 0,0.55139 0.44861,1 1,1 z m -9,10 h 2 v -4 h -2 z m 0,4 h 2 v -2 h -2 z m 0,6 h 2 v -4 h -2 z m 0,6 h 2 v -4 h -2 z m 0,4 h 2 V 50 H 16 Z M 68,17 v 46 c 0,0.55231 -0.44769,1 -1,1 H 13 c -0.55231,0 -1,-0.44769 -1,-1 V 17 c 0,-0.55231 0.44769,-1 1,-1 h 54 c 0.55231,0 1,0.44769 1,1 z M 14,58 h 6 V 26 h -6 z m 26,0 h 15 c 0.55231,0 1,0.44769 1,1 0,0.51282 -0.38599,0.93549 -0.88342,0.99329 L 55,60 H 14 v 2 h 52 v -2 h -5 c -0.55231,0 -1,-0.44769 -1,-1 0,-0.51282 0.38599,-0.93549 0.88342,-0.99329 L 61,58 h 5 V 26 h -9 c -0.55231,0 -1,-0.44769 -1,-1 0,-0.51282 0.38599,-0.93549 0.88342,-0.99329 L 57,24 h 9 V 18 H 14 v 6 h 37 c 0.55231,0 1,0.44769 1,1 0,0.51282 -0.38599,0.93549 -0.88342,0.99329 L 51,26 H 40 38 22 v 32 h 16 z"
       id="path10"
       inkscape:connector-curvature="0"
       sodipodi:nodetypes="ssssssssssssssscccccccccccccccccccccccccsssssssssccccccssccccccssccccssccccccsscccccccc" />
  </g>
</svg>
