<svg width="80px" height="80px" viewBox="0 0 80 80" xmlns="http://www.w3.org/2000/svg">
  <symbol id="artwork-minor">
    <path fill="#C3FAD5" d="M80 40C80 62.0914 62.0914 80 40 80C17.9086 80 0 62.0914 0 40C0 17.9086 17.9086 0 40 0C62.0914 0 80 17.9086 80 40Z"/>
  </symbol>
  <symbol id="artwork-major">
    <path fill="#161616" d="M24 27.2846V52.9326L34.13 48.5926L46.13 54.5926L56 50.3586V24.7126L58.606 23.5966C58.7582 23.5313 58.9242 23.5049 59.0891 23.5196C59.254 23.5344 59.4126 23.5899 59.5508 23.6811C59.689 23.7722 59.8024 23.8963 59.8808 24.0422C59.9592 24.188 60.0001 24.351 60 24.5166V52.9986L46 58.9986L34 52.9986L21.394 58.4006C21.2418 58.4658 21.0758 58.4922 20.9109 58.4775C20.746 58.4627 20.5874 58.4073 20.4492 58.3161C20.311 58.2249 20.1976 58.1008 20.1192 57.955C20.0408 57.8091 19.9999 57.6461 20 57.4806V28.9986L24 27.2846ZM48.486 37.4846L40 45.9686L31.514 37.4846C29.836 35.8063 28.6933 33.6681 28.2304 31.3403C27.7676 29.0126 28.0053 26.5999 28.9136 24.4073C29.822 22.2147 31.36 20.3407 33.3334 19.0222C35.3067 17.7037 37.6267 17 40 17C42.3733 17 44.6933 17.7037 46.6666 19.0222C48.64 20.3407 50.178 22.2147 51.0864 24.4073C51.9947 26.5999 52.2324 29.0126 51.7696 31.3403C51.3067 33.6681 50.164 35.8063 48.486 37.4846ZM40 40.3126L45.656 34.6546C46.7751 33.5358 47.5372 32.1104 47.8461 30.5585C48.155 29.0066 47.9967 27.3979 47.3913 25.9359C46.7858 24.474 45.7605 23.2244 44.4448 22.3453C43.1292 21.4661 41.5824 20.9969 40 20.9969C38.4176 20.9969 36.8708 21.4661 35.5552 22.3453C34.2395 23.2244 33.2142 24.474 32.6087 25.9359C32.0033 27.3979 31.845 29.0066 32.1539 30.5585C32.4628 32.1104 33.2249 33.5358 34.344 34.6546L40 40.3126Z"/>
  </symbol>
  <use class="fr-artwork-decorative" href="#artwork-decorative"/>
  <use class="fr-artwork-minor" href="#artwork-minor"/>
  <use class="fr-artwork-major" href="#artwork-major"/>
</svg>
